<svg xmlns="http://www.w3.org/2000/svg" width="24.734" height="20.364" viewBox="0 0 24.734 20.364"><g transform="translate(13.893 0.643)"><path d="M95.867,178.792a5.73,5.73,0,0,1-1.6,3.961,4.366,4.366,0,1,0,.011-7.927A5.751,5.751,0,0,1,95.867,178.792Z" transform="translate(-94.269 -174.426)" fill="#fff"/><path d="M96.546,189.6c-.252,0-.5.017-.746.037a10.406,10.406,0,0,1,5.164,8.976h4.6A9.016,9.016,0,0,0,96.546,189.6Z" transform="translate(-94.719 -178.888)" fill="#fff"/></g><g transform="translate(0 0)"><ellipse cx="4.366" cy="4.366" rx="4.366" ry="4.366" transform="matrix(0.987, -0.16, 0.16, 0.987, 3.999, 1.399)" fill="#fff"/><path d="M83.593,189.6a9.01,9.01,0,0,0-9.007,9.014h18.02A9.016,9.016,0,0,0,83.593,189.6Z" transform="translate(-74.586 -178.245)" fill="#fff"/></g></svg>