<svg xmlns="http://www.w3.org/2000/svg" width="27.061" height="19.718" viewBox="0 0 27.061 19.718"><g transform="translate(0)"><rect width="27.033" height="1.234" rx="0.617" transform="translate(0 18.484)" fill="#fff"/><path d="M97.538,138.682H75.491A2.493,2.493,0,0,0,73,141.175v12.314a2.493,2.493,0,0,0,2.493,2.493H89.639v-1.472a.45.45,0,0,1,.45-.45h4.685a.45.45,0,0,1,.45.45v1.472h2.313a2.493,2.493,0,0,0,2.493-2.493V141.175A2.493,2.493,0,0,0,97.538,138.682ZM78.356,150.535h-1.3V145.6H76.3v-1.309h2.057Zm5.183-2.766H82.046v1.541h-.7V147.77H79.862v-.74h1.483v-1.544h.7v1.544h1.493Zm3.51,2.766H85.755V145.6h-.762v-1.309h2.056Zm4.86-1.979H88.245v-.74h3.664Zm0-1.64H88.245v-.74h3.664Zm4.65-.077a6.64,6.64,0,0,1-.511,1.115l-.735,1.309h1.206v1.272H93.1l1.953-3.484a2.336,2.336,0,0,0,.359-1.141.759.759,0,0,0-.107-.421.337.337,0,0,0-.6.049,2.894,2.894,0,0,0-.078.839v.229H93.315a8.184,8.184,0,0,1,.056-1.1,1.912,1.912,0,0,1,.233-.7,1.269,1.269,0,0,1,.541-.491,1.908,1.908,0,0,1,.867-.185,1.7,1.7,0,0,1,1.273.454,1.8,1.8,0,0,1,.443,1.309A3,3,0,0,1,96.559,146.839Z" transform="translate(-72.969 -138.682)" fill="#fff"/></g></svg>