<svg xmlns="http://www.w3.org/2000/svg" width="892.112" height="437.648" viewBox="0 0 892.112 437.648"><defs><style>.a,.e{opacity:0.5;}.b,.c,.d,.e{fill:#fff;}.b{opacity:0.3;}.c{opacity:0.6;}.d{opacity:0.7;}.f{opacity:0.75;}.g,.h{fill:none;stroke:#fff;stroke-linecap:round;}.g{stroke-width:5px;}.h{stroke-width:3px;}</style></defs><g transform="translate(-244.667 -233.596) rotate(-45)"><g class="a" transform="translate(-81.928 432.026)"><rect class="b" width="211.096" height="211.096" rx="25" transform="translate(351.4 167.801) rotate(135)"/><rect class="c" width="133.135" height="133.135" rx="25" transform="translate(366.993 377.698) rotate(135)"/><rect class="d" width="133.135" height="133.135" rx="15" transform="translate(188.281 331.521) rotate(135)"/><rect class="e" width="67.767" height="67.767" rx="9" transform="translate(384.868 255.9) rotate(135)"/><rect class="e" width="67.767" height="67.767" rx="9" transform="translate(148.584 47.918) rotate(135)"/></g><g class="f" transform="translate(-82.226 431.774)"><line class="g" y1="308.248" transform="translate(293.735 371.561) rotate(135)"/><line class="h" y1="308.248" transform="translate(305.773 543.174) rotate(135)"/><line class="h" y1="308.248" transform="translate(549.138 486.932) rotate(135)"/><path class="g" d="M0,308.248V0" transform="translate(217.965 217.965) rotate(135)"/><line class="h" x2="293.841" y2="294.491" transform="translate(264.489 401.038)"/></g></g></svg>