<svg xmlns="http://www.w3.org/2000/svg" width="1111.12" height="607.373" viewBox="0 0 1111.12 607.373"><defs><style>.a{opacity:0.75;}.b,.c,.d,.e,.f{fill:#fff;}.b{opacity:0.3;}.c{opacity:0.6;}.d{opacity:0.7;}.e{opacity:0.5;}.f{opacity:0.25;}.g{opacity:0.9;}.h,.i,.j,.k{fill:none;stroke:#fff;stroke-linecap:round;}.h{stroke-width:5px;}.i{stroke-width:3px;}.j{stroke-width:7px;}.k{stroke-width:10px;}</style></defs><g transform="translate(98.013 -986.414) rotate(45)"><g class="a"><rect class="b" width="352" height="352" rx="25" transform="translate(1225.902 169.098) rotate(45)"/><rect class="c" width="193" height="193" rx="25" transform="translate(1105.856 613.144) rotate(45)"/><rect class="d" width="222" height="222" rx="25" transform="translate(1405.978 534.022) rotate(45)"/><rect class="e" width="113" height="113" rx="25" transform="translate(1015.946 499.849) rotate(45)"/><rect class="f" width="113" height="113" rx="25" transform="translate(923.315 769.257) rotate(45)"/><rect class="e" width="113" height="113" rx="25" transform="translate(1395.097 138.194) rotate(45)"/></g><g class="g"><line class="h" y2="514" transform="translate(1417.753 413.247) rotate(45)"/><line class="i" y2="514" transform="translate(1314.453 605.774) rotate(45)"/><line class="j" y2="514" transform="translate(1095.372 502.128) rotate(45)"/><line class="k" y2="514" transform="translate(1563.453 137.774) rotate(45)"/><line class="k" y2="514" transform="translate(1625.678 489.913) rotate(45)"/></g></g></svg>