<svg id="Layer_1" data-name="Layer 1" xmlns="http://www.w3.org/2000/svg" viewBox="0 0 24.73 20.36"><defs><style>.cls-1{fill:#fff;}</style></defs><title>overview</title><path class="cls-1" d="M22.85,13.67v5.52a1.24,1.24,0,0,1-1.3,1.17H15.27V12.25H9.47v8.11H3.13a1.24,1.24,0,0,1-1.3-1.17V13.68a1.1,1.1,0,0,1,.38-.83L12.34,3.72l10.13,9.12A1.13,1.13,0,0,1,22.85,13.67Z"/><path class="cls-1" d="M23.7,12.25A1,1,0,0,1,23,12L12.34,2.37,1.74,12a1.06,1.06,0,0,1-1.46,0,1,1,0,0,1,0-1.42L11.63.27A1.06,1.06,0,0,1,13,.27L24.41,10.52a1,1,0,0,1,.05,1.42A1.06,1.06,0,0,1,23.7,12.25Z"/></svg>