<?xml version="1.0" encoding="utf-8"?>
<!-- Generator: Adobe Illustrator 23.0.2, SVG Export Plug-In . SVG Version: 6.00 Build 0)  -->
<svg version="1.1" id="Layer_1" xmlns="http://www.w3.org/2000/svg" xmlns:xlink="http://www.w3.org/1999/xlink" x="0px" y="0px"
	 viewBox="0 0 129 24" style="enable-background:new 0 0 129 24;" xml:space="preserve">
<style type="text/css">
	.st0{enable-background:new    ;}
	.st1{fill:#FFFFFF;}
</style>
<g class="st0">
	<path class="st1" d="M1.3,4.7h7.3c2.5,0,5,1.1,5,4c0,1.5-0.7,3-2.2,3.6v0c1.5,0.4,2,2.1,2.1,3.4c0,0.6,0.1,2.7,0.6,3.2h-3.7
		c-0.3-0.5-0.4-1.9-0.4-2.3c-0.1-1.4-0.3-2.9-2.1-2.9H5V19H1.3V4.7z M5,10.9h3.1c1.1,0,1.7-0.6,1.7-1.7C9.8,8.2,9,7.7,8,7.7H5V10.9z
		"/>
	<path class="st1" d="M15.7,4.7h11.4v3h-7.7v2.5h7v2.9h-7v2.7h7.9V19H15.7V4.7z"/>
	<path class="st1" d="M29.4,4.7h3.7v5.5l4.7-5.5h4.6l-5.3,5.6l5.9,8.7h-4.6l-3.8-6l-1.5,1.6V19h-3.7V4.7z"/>
</g>
<g class="st0">
	<path class="st1" d="M44.5,4.7H56v1.8h-9.4v4.1h9.1v1.8h-9.1v4.6h9.6V19H44.5V4.7z"/>
	<path class="st1" d="M69.4,4.7h2.3L65.4,19h-2.3L56.8,4.7h2.4l5.1,12.1L69.4,4.7z"/>
	<path class="st1" d="M73,4.7h11.5v1.8h-9.4v4.1h9.1v1.8h-9.1v4.6h9.6V19H73V4.7z"/>
	<path class="st1" d="M89.3,7.6L89.3,7.6l0,11.4h-2.1V4.7h2.5l9.2,11.4h0V4.7h2.1V19h-2.5L89.3,7.6z"/>
	<path class="st1" d="M108,6.6h-5.4V4.7h12.9v1.8h-5.4V19H108V6.6z"/>
	<path class="st1" d="M118,14.3c0,2.6,2.4,3.2,4.6,3.2c2.3,0,3.9-0.9,3.9-2.4c0-1.3-1-1.8-2.7-2.1l-3.2-0.5c-1.7-0.3-4.2-1-4.2-3.7
		c0-2.6,2.1-4.3,5.7-4.3c2.9,0,5.9,1,6.1,4.5H126c-0.2-1.1-0.8-2.6-4.2-2.6c-1.6,0-3.3,0.7-3.3,2.3c0,0.9,0.6,1.6,2.3,1.9l3.5,0.6
		c1.1,0.2,4.3,0.7,4.3,3.7c0,3.6-3.3,4.7-6.1,4.7c-3.2,0-6.6-1.1-6.6-5.1H118z"/>
</g>
</svg>
